# xmcd
#
# Track frame offsets:
#	150
#	19514
#	33073
#	47570
#	60368
#	74668
#	84997
#	94915
#	108345
#	121947
#	134713
#	149240
#	160815
#	174210
#	189685
#	208088
#
# Disc length: 2981 seconds
#
# Revision: 0
# Processed by: cddbd v1.5.1PL0 Copyright (c) Steve Scherf et al.
# Submitted via: audiograbber 1.83.01
#
DISCID=df0ba310
DTITLE=Romero Amorim - Esses Blocos - Frevos de Bloco
DYEAR=2002
DGENRE=Musica Pernambucana
TTITLE0=Esses Blocos
TTITLE1=Recifloração
TTITLE2=Voltando ao Jardim
TTITLE3=Aurora de Amor
TTITLE4=Vagalumes
TTITLE5=Cordel Estrelado
TTITLE6=Sonho, Seda e Cetim
TTITLE7=Recife Antigo
TTITLE8=Pra Ver Você
TTITLE9=Saudade Azul
TTITLE10=Sonho, confete e Serpentina
TTITLE11=Flor de Moreno
TTITLE12=Pra não Chorar
TTITLE13=Ó, Linda Olinda !
TTITLE14=Um Bloco em Serenata
TTITLE15=Adeus, Alírio ! (Regresso de Pierrô)
EXTD=
EXTT0=
EXTT1=
EXTT2=
EXTT3=
EXTT4=
EXTT5=
EXTT6=
EXTT7=
EXTT8=
EXTT9=
EXTT10=
EXTT11=
EXTT12=
EXTT13=
EXTT14=
EXTT15=
PLAYORDER=
